<?xml version="1.0" encoding="UTF-8" standalone="no"?>
<svg
   xmlns:osb="http://www.openswatchbook.org/uri/2009/osb"
   xmlns:dc="http://purl.org/dc/elements/1.1/"
   xmlns:cc="http://creativecommons.org/ns#"
   xmlns:rdf="http://www.w3.org/1999/02/22-rdf-syntax-ns#"
   xmlns:svg="http://www.w3.org/2000/svg"
   xmlns="http://www.w3.org/2000/svg"
   xmlns:xlink="http://www.w3.org/1999/xlink"
   xmlns:sodipodi="http://sodipodi.sourceforge.net/DTD/sodipodi-0.dtd"
   xmlns:inkscape="http://www.inkscape.org/namespaces/inkscape"
   width="210mm"
   height="297mm"
   viewBox="0 0 210 297"
   version="1.1"
   id="svg8"
   inkscape:version="1.0.2 (e86c870879, 2021-01-15)"
   sodipodi:docname="logo.svg">
  <defs
     id="defs2">
    <rect
       x="20.233302"
       y="44.909925"
       width="81.010924"
       height="47.946347"
       id="rect1001" />
    <rect
       x="105.71976"
       y="101.12679"
       width="81.82729"
       height="53.381305"
       id="rect994" />
    <rect
       x="31.041062"
       y="56.427672"
       width="61.55166"
       height="27.408138"
       id="rect988" />
    <rect
       x="93.531774"
       y="83.708111"
       width="62.490712"
       height="27.280439"
       id="rect982" />
    <rect
       x="31.135601"
       y="46.416386"
       width="65.783432"
       height="47.97027"
       id="rect976" />
    <rect
       x="86.044604"
       y="80.151272"
       width="54.405882"
       height="40.497507"
       id="rect970" />
    <rect
       x="38.470562"
       y="56.427672"
       width="3.6936057"
       height="16.125719"
       id="rect964" />
    <rect
       x="31.041062"
       y="56.427672"
       width="60.678865"
       height="29.748309"
       id="rect958" />
    <linearGradient
       id="linearGradient871"
       osb:paint="solid">
      <stop
         style="stop-color:#4e0000;stop-opacity:1;"
         offset="0"
         id="stop869" />
    </linearGradient>
    <rect
       x="89.427213"
       y="81.315111"
       width="14.372314"
       height="12.37544"
       id="rect42" />
    <rect
       x="88.97359"
       y="82.852759"
       width="9.7607253"
       height="20.713133"
       id="rect36" />
    <rect
       x="82.07553"
       y="65.500597"
       width="2.5616976"
       height="16.040865"
       id="rect30" />
    <rect
       x="85.07118"
       y="65.684226"
       width="7.6470139"
       height="10.880279"
       id="rect24" />
    <rect
       x="58.279388"
       y="92.370239"
       width="36.462014"
       height="92.012956"
       id="rect18" />
    <rect
       x="30.914503"
       y="53.950564"
       width="159.36836"
       height="166.20889"
       id="rect12" />
    <linearGradient
       inkscape:collect="always"
       xlink:href="#linearGradient871"
       id="linearGradient1005"
       gradientUnits="userSpaceOnUse"
       x1="31.041062"
       y1="68.321222"
       x2="89.067204"
       y2="68.321222" />
    <linearGradient
       inkscape:collect="always"
       xlink:href="#linearGradient871"
       id="linearGradient1007"
       gradientUnits="userSpaceOnUse"
       x1="31.041062"
       y1="68.321222"
       x2="89.067204"
       y2="68.321222" />
    <linearGradient
       inkscape:collect="always"
       xlink:href="#linearGradient871"
       id="linearGradient1009"
       gradientUnits="userSpaceOnUse"
       x1="31.041062"
       y1="68.321222"
       x2="89.067204"
       y2="68.321222" />
    <linearGradient
       inkscape:collect="always"
       xlink:href="#linearGradient871"
       id="linearGradient1011"
       gradientUnits="userSpaceOnUse"
       x1="31.041062"
       y1="68.321222"
       x2="89.067204"
       y2="68.321222" />
    <linearGradient
       inkscape:collect="always"
       xlink:href="#linearGradient871"
       id="linearGradient1013"
       gradientUnits="userSpaceOnUse"
       x1="31.041062"
       y1="68.321222"
       x2="89.067204"
       y2="68.321222" />
    <linearGradient
       inkscape:collect="always"
       xlink:href="#linearGradient871"
       id="linearGradient1015"
       gradientUnits="userSpaceOnUse"
       x1="31.041062"
       y1="68.321222"
       x2="89.067204"
       y2="68.321222" />
    <linearGradient
       inkscape:collect="always"
       xlink:href="#linearGradient871"
       id="linearGradient1017"
       gradientUnits="userSpaceOnUse"
       x1="31.041062"
       y1="68.321222"
       x2="89.067204"
       y2="68.321222" />
    <linearGradient
       inkscape:collect="always"
       xlink:href="#linearGradient871"
       id="linearGradient1019"
       gradientUnits="userSpaceOnUse"
       x1="31.041062"
       y1="68.321222"
       x2="89.067204"
       y2="68.321222" />
    <linearGradient
       inkscape:collect="always"
       xlink:href="#linearGradient871"
       id="linearGradient1021"
       gradientUnits="userSpaceOnUse"
       x1="31.041062"
       y1="68.321222"
       x2="89.067204"
       y2="68.321222" />
    <linearGradient
       inkscape:collect="always"
       xlink:href="#linearGradient871"
       id="linearGradient1023"
       gradientUnits="userSpaceOnUse"
       x1="31.041062"
       y1="68.321222"
       x2="89.067204"
       y2="68.321222" />
    <linearGradient
       inkscape:collect="always"
       xlink:href="#linearGradient871"
       id="linearGradient1025"
       gradientUnits="userSpaceOnUse"
       x1="31.041062"
       y1="68.321222"
       x2="89.067204"
       y2="68.321222" />
    <linearGradient
       inkscape:collect="always"
       xlink:href="#linearGradient871"
       id="linearGradient1027"
       gradientUnits="userSpaceOnUse"
       x1="31.041062"
       y1="68.321222"
       x2="89.067204"
       y2="68.321222" />
    <linearGradient
       inkscape:collect="always"
       xlink:href="#linearGradient871"
       id="linearGradient1029"
       gradientUnits="userSpaceOnUse"
       x1="31.041062"
       y1="68.321222"
       x2="89.067204"
       y2="68.321222" />
    <linearGradient
       inkscape:collect="always"
       xlink:href="#linearGradient871"
       id="linearGradient1031"
       gradientUnits="userSpaceOnUse"
       x1="31.041062"
       y1="68.321222"
       x2="89.067204"
       y2="68.321222" />
    <linearGradient
       inkscape:collect="always"
       xlink:href="#linearGradient871"
       id="linearGradient1033"
       gradientUnits="userSpaceOnUse"
       x1="31.041062"
       y1="68.321222"
       x2="89.067204"
       y2="68.321222" />
    <linearGradient
       inkscape:collect="always"
       xlink:href="#linearGradient871"
       id="linearGradient1035"
       gradientUnits="userSpaceOnUse"
       x1="31.041062"
       y1="68.321222"
       x2="89.067204"
       y2="68.321222" />
    <linearGradient
       inkscape:collect="always"
       xlink:href="#linearGradient871"
       id="linearGradient1037"
       gradientUnits="userSpaceOnUse"
       x1="31.041062"
       y1="68.321222"
       x2="89.067204"
       y2="68.321222" />
    <linearGradient
       inkscape:collect="always"
       xlink:href="#linearGradient871"
       id="linearGradient1039"
       gradientUnits="userSpaceOnUse"
       x1="31.041062"
       y1="68.321222"
       x2="89.067204"
       y2="68.321222" />
  </defs>
  <sodipodi:namedview
     id="base"
     pagecolor="#ffffff"
     bordercolor="#666666"
     borderopacity="1.0"
     inkscape:pageopacity="0.0"
     inkscape:pageshadow="2"
     inkscape:zoom="0.70710678"
     inkscape:cx="316.01891"
     inkscape:cy="572.54856"
     inkscape:document-units="mm"
     inkscape:current-layer="layer1"
     inkscape:document-rotation="0"
     showgrid="false"
     inkscape:window-width="1904"
     inkscape:window-height="976"
     inkscape:window-x="8"
     inkscape:window-y="59"
     inkscape:window-maximized="0" />
  <metadata
     id="metadata5">
    <rdf:RDF>
      <cc:Work
         rdf:about="">
        <dc:format>image/svg+xml</dc:format>
        <dc:type
           rdf:resource="http://purl.org/dc/dcmitype/StillImage" />
        <dc:title></dc:title>
      </cc:Work>
    </rdf:RDF>
  </metadata>
  <g
     inkscape:label="Layer 1"
     inkscape:groupmode="layer"
     id="layer1">
    <path
       d="m 35.206662,60.999672 3.2639,-4.572 h -1.1303 l -2.5781,3.6957 -2.5781,-3.6957 h -1.143 l 3.2766,4.5847 v 4.0513 h 0.889 z"
       style="font-style:normal;font-variant:normal;font-weight:normal;font-stretch:normal;font-size:12.7px;line-height:1.25;font-family:'Glacial Indifference';-inkscape-font-specification:'Glacial Indifference';white-space:pre;fill:url(#linearGradient1005);fill-opacity:1;stroke:none"
       id="path919" />
    <path
       d="m 41.975749,62.244272 c 0,0.5588 -0.2032,1.0287 -0.5969,1.4224 -0.4064,0.4064 -0.8763,0.5969 -1.4351,0.5969 -0.5588,0 -1.0414,-0.1905 -1.4351,-0.5969 -0.4064,-0.3937 -0.5969,-0.8636 -0.5969,-1.4224 0,-0.5588 0.1905,-1.0287 0.5969,-1.4351 0.3937,-0.3937 0.8763,-0.5969 1.4351,-0.5969 0.5588,0 1.0287,0.2032 1.4351,0.5969 0.3937,0.4064 0.5969,0.8763 0.5969,1.4351 z m 0.889,0 c 0,-0.8001 -0.2921,-1.4859 -0.8636,-2.0574 -0.5715,-0.5715 -1.2573,-0.8636 -2.0574,-0.8636 -0.8128,0 -1.4986,0.2921 -2.0701,0.8636 -0.5715,0.5715 -0.8509,1.2573 -0.8509,2.0574 0,0.8128 0.2794,1.4986 0.8509,2.0574 0.5715,0.5715 1.27,0.8509 2.0701,0.8509 0.7874,0 1.4859,-0.2794 2.0574,-0.8509 0.5715,-0.5588 0.8636,-1.2446 0.8636,-2.0574 z"
       style="font-style:normal;font-variant:normal;font-weight:normal;font-stretch:normal;font-size:12.7px;line-height:1.25;font-family:'Glacial Indifference';-inkscape-font-specification:'Glacial Indifference';white-space:pre;fill:url(#linearGradient1007);fill-opacity:1;stroke:none"
       id="path921" />
    <path
       d="m 48.909939,62.269672 c 0,0.5461 -0.1905,1.0287 -0.5715,1.4224 -0.381,0.4064 -0.8509,0.6096 -1.397,0.6096 -0.5461,0 -1.016,-0.2032 -1.397,-0.6096 -0.381,-0.3937 -0.5715,-0.8636 -0.5715,-1.4224 0,-0.5461 0.1905,-1.016 0.5715,-1.4224 0.381,-0.4064 0.8509,-0.6096 1.397,-0.6096 0.5461,0 1.016,0.2032 1.397,0.6096 0.381,0.4064 0.5715,0.889 0.5715,1.4224 z m -3.9624,3.556 h -0.9144 c 0.1016,0.5969 0.3683,1.1176 0.8255,1.5621 0.5588,0.5715 1.2446,0.8509 2.0447,0.8509 0.7874,0 1.4732,-0.2794 2.0447,-0.8509 0.5588,-0.5588 0.8509,-1.2446 0.8509,-2.0447 v -5.8674 h -0.889 v 0.9398 c -0.0508,-0.0508 -0.1016,-0.1143 -0.1524,-0.1778 -0.5588,-0.5842 -1.2065,-0.889 -1.9431,-0.889 -0.7874,0 -1.4351,0.3048 -1.9685,0.889 -0.508,0.5842 -0.762,1.2573 -0.762,2.032 0,0.7874 0.254,1.4605 0.762,2.032 0.5334,0.5969 1.1811,0.889 1.9685,0.889 0.762,0 1.4097,-0.2921 1.9431,-0.889 0.0508,-0.0508 0.1016,-0.1143 0.1524,-0.1651 v 1.2065 c 0,0.5588 -0.2032,1.0287 -0.5969,1.4224 -0.3937,0.3937 -0.8636,0.5842 -1.4097,0.5842 -0.5588,0 -1.0287,-0.1905 -1.4224,-0.5842 -0.2794,-0.2794 -0.4572,-0.5842 -0.5334,-0.9398 z"
       style="font-style:normal;font-variant:normal;font-weight:normal;font-stretch:normal;font-size:12.7px;line-height:1.25;font-family:'Glacial Indifference';-inkscape-font-specification:'Glacial Indifference';white-space:pre;fill:url(#linearGradient1009);fill-opacity:1;stroke:none"
       id="path923" />
    <path
       d="m 56.148917,62.269672 c 0,0.5461 -0.1905,1.0287 -0.5715,1.4224 -0.381,0.4064 -0.8509,0.6096 -1.397,0.6096 -0.5588,0 -1.0287,-0.2032 -1.4097,-0.6096 -0.381,-0.3937 -0.5588,-0.8763 -0.5588,-1.4224 0,-0.5334 0.1778,-1.016 0.5588,-1.4224 0.381,-0.4064 0.8509,-0.6096 1.4097,-0.6096 0.5461,0 1.016,0.2032 1.397,0.6096 0.381,0.4064 0.5715,0.889 0.5715,1.4224 z m 0.889,2.794 v -5.588 h -0.889 v 0.9652 c -0.0508,-0.0762 -0.1143,-0.1397 -0.1651,-0.2032 -0.5334,-0.5842 -1.1811,-0.889 -1.9431,-0.889 -0.7747,0 -1.4224,0.3048 -1.9558,0.889 -0.508,0.5842 -0.762,1.2573 -0.762,2.032 0,0.7874 0.254,1.4605 0.762,2.032 0.5334,0.5969 1.1811,0.889 1.9558,0.889 0.762,0 1.4097,-0.2921 1.9431,-0.889 0.0508,-0.0508 0.1143,-0.1143 0.1651,-0.1905 v 0.9525 z"
       style="font-style:normal;font-variant:normal;font-weight:normal;font-stretch:normal;font-size:12.7px;line-height:1.25;font-family:'Glacial Indifference';-inkscape-font-specification:'Glacial Indifference';white-space:pre;fill:url(#linearGradient1011);fill-opacity:1;stroke:none"
       id="path925" />
    <path
       d="m 67.832895,65.774872 2.6543,-6.2992 h -0.9906 l -1.6764,4.3053 -1.8034,-4.5974 -1.8034,4.5974 -1.6764,-4.3053 h -0.9906 l 2.6797,6.2992 1.7907,-4.5085 z"
       style="font-style:normal;font-variant:normal;font-weight:normal;font-stretch:normal;font-size:12.7px;line-height:1.25;font-family:'Glacial Indifference';-inkscape-font-specification:'Glacial Indifference';white-space:pre;fill:url(#linearGradient1013);fill-opacity:1;stroke:none"
       id="path927" />
    <path
       d="m 72.468381,57.545272 c -0.1143,-0.1016 -0.254,-0.1651 -0.4064,-0.1651 -0.1524,0 -0.292099,0.0635 -0.393699,0.1651 -0.1143,0.1143 -0.1651,0.254 -0.1651,0.4064 0,0.1524 0.0508,0.2921 0.1651,0.3937 0.1016,0.1143 0.241299,0.1651 0.393699,0.1651 0.1524,0 0.2921,-0.0508 0.4064,-0.1651 0.1016,-0.1016 0.1651,-0.2413 0.1651,-0.3937 0,-0.1524 -0.0635,-0.2921 -0.1651,-0.4064 z m 0.0508,7.5184 v -5.588 h -0.888999 v 5.588 z"
       style="font-style:normal;font-variant:normal;font-weight:normal;font-stretch:normal;font-size:12.7px;line-height:1.25;font-family:'Glacial Indifference';-inkscape-font-specification:'Glacial Indifference';white-space:pre;fill:url(#linearGradient1015);fill-opacity:1;stroke:none"
       id="path929" />
    <path
       d="m 73.776457,60.301172 h 1.397 v 4.7625 h 0.889 v -4.7625 h 1.3843 v -0.8255 h -1.3843 v -2.1717 h -0.889 v 2.1717 h -1.397 z"
       style="font-style:normal;font-variant:normal;font-weight:normal;font-stretch:normal;font-size:12.7px;line-height:1.25;font-family:'Glacial Indifference';-inkscape-font-specification:'Glacial Indifference';white-space:pre;fill:url(#linearGradient1017);fill-opacity:1;stroke:none"
       id="path931" />
    <path
       d="m 79.542241,65.063672 v -2.3368 c 0,-0.7747 0.127,-1.3589 0.3937,-1.7653 0.1524,-0.2286 0.3429,-0.3937 0.5842,-0.5207 0.2286,-0.127 0.5461,-0.1905 0.9271,-0.1905 0.381,0 0.6477,0.1397 0.8128,0.3937 0.1651,0.254 0.254,0.5715 0.254,0.9271 v 3.4925 h 0.889 v -3.4925 c 0,-0.6477 -0.1778,-1.1684 -0.508,-1.5621 -0.1778,-0.2032 -0.381,-0.3556 -0.6223,-0.4699 -0.254,-0.1143 -0.5715,-0.1778 -0.9652,-0.1778 -0.4064,0 -0.7493,0.1143 -1.0541,0.3175 -0.2921,0.1905 -0.5334,0.4445 -0.7112,0.762 v -4.9022 h -0.889 v 9.525 z"
       style="font-style:normal;font-variant:normal;font-weight:normal;font-stretch:normal;font-size:12.7px;line-height:1.25;font-family:'Glacial Indifference';-inkscape-font-specification:'Glacial Indifference';white-space:pre;fill:url(#linearGradient1019);fill-opacity:1;stroke:none"
       id="path933" />
    <path
       d="m 34.254162,76.874672 c 1.1176,0.2667 1.8796,0.5588 2.286,0.889 0.2794,0.2286 0.4191,0.5207 0.4191,0.8763 0,0.3556 -0.0762,0.6477 -0.2286,0.8509 -0.381,0.5334 -1.0668,0.8001 -2.032,0.8001 -1.3462,0 -2.1082,-0.4572 -2.2733,-1.3716 h -1.0414 c 0.3048,1.4605 1.4097,2.1844 3.3147,2.1844 0.8509,0 1.5621,-0.1778 2.1336,-0.5588 0.6858,-0.4445 1.0414,-1.1049 1.0414,-1.9685 0,-0.7112 -0.2794,-1.2573 -0.8382,-1.6383 -0.3937,-0.2794 -1.0287,-0.5334 -1.905,-0.762 -0.889,-0.2286 -1.4605,-0.4191 -1.7272,-0.5588 -0.5842,-0.2921 -0.8763,-0.6985 -0.8636,-1.2319 0,-0.2794 0.0508,-0.5207 0.1778,-0.6985 0.3302,-0.4953 0.9144,-0.7493 1.7526,-0.7493 1.1811,0 1.8542,0.381 2.032,1.1176 h 0.9652 c -0.3175,-1.2446 -1.3208,-1.8796 -2.9972,-1.8796 -0.762,0 -1.4351,0.2032 -1.9939,0.6096 -0.5715,0.4064 -0.8636,1.0033 -0.8636,1.8161 0,1.1049 0.889,1.8669 2.6416,2.2733 z"
       style="font-style:normal;font-variant:normal;font-weight:normal;font-stretch:normal;font-size:12.7px;line-height:1.25;font-family:'Glacial Indifference';-inkscape-font-specification:'Glacial Indifference';white-space:pre;fill:url(#linearGradient1021);fill-opacity:1;stroke:none"
       id="path935" />
    <path
       d="m 43.017155,79.986172 v 0.9525 h 0.889 v -5.588 h -0.889 v 2.3368 c 0,0.7874 -0.1524,1.3843 -0.4445,1.8288 -0.2794,0.4318 -0.7747,0.6477 -1.4605,0.6477 -0.381,0 -0.6604,-0.127 -0.8255,-0.381 -0.1651,-0.254 -0.2413,-0.5715 -0.2413,-0.9398 v -3.4925 h -0.889 v 3.4925 c 0,0.6477 0.1651,1.1811 0.5207,1.6002 0.3556,0.4064 0.8382,0.6096 1.4732,0.6096 0.8255,0 1.4478,-0.3556 1.8669,-1.0668 z"
       style="font-style:normal;font-variant:normal;font-weight:normal;font-stretch:normal;font-size:12.7px;line-height:1.25;font-family:'Glacial Indifference';-inkscape-font-specification:'Glacial Indifference';white-space:pre;fill:url(#linearGradient1023);fill-opacity:1;stroke:none"
       id="path937" />
    <path
       d="m 46.42074,80.151272 c -0.2159,-0.1524 -0.381,-0.4064 -0.4699,-0.7747 h -0.9398 c 0.1905,1.1557 0.9271,1.7272 2.2225,1.7272 0.3048,0 0.5842,-0.0254 0.8509,-0.1016 0.2667,-0.0762 0.4953,-0.1778 0.7112,-0.3175 0.4318,-0.2921 0.6477,-0.7366 0.6477,-1.3335 0,-0.6096 -0.2794,-1.0414 -0.8636,-1.3208 -0.2413,-0.1143 -0.508,-0.2032 -0.8001,-0.2667 -0.2794,-0.0635 -0.5461,-0.1397 -0.7874,-0.2159 -0.254,-0.0762 -0.4572,-0.1778 -0.6223,-0.2921 -0.1651,-0.1143 -0.254,-0.2921 -0.254,-0.5461 0,-0.254 0.1016,-0.4445 0.3048,-0.5588 0.2032,-0.127 0.4445,-0.1905 0.7112,-0.1905 0.2794,0 0.5207,0.0635 0.7112,0.1651 0.1905,0.1016 0.3429,0.3048 0.4318,0.6096 h 0.9525 c -0.1143,-0.5588 -0.3556,-0.9525 -0.7112,-1.1684 -0.3683,-0.2286 -0.8128,-0.3429 -1.3589,-0.3429 -0.5334,0 -1.0033,0.1524 -1.397,0.4318 -0.381,0.2921 -0.5842,0.7112 -0.5842,1.27 0,0.2667 0.0762,0.508 0.2159,0.7112 0.1524,0.2159 0.3683,0.381 0.6477,0.508 0.254,0.1143 0.5207,0.2032 0.8001,0.2794 0.2794,0.0635 0.5461,0.1397 0.8001,0.2159 0.5715,0.1905 0.8636,0.4699 0.8636,0.8255 0,0.6096 -0.4064,0.9017 -1.2192,0.9017 -0.3429,0 -0.635,-0.0635 -0.8636,-0.2159 z"
       style="font-style:normal;font-variant:normal;font-weight:normal;font-stretch:normal;font-size:12.7px;line-height:1.25;font-family:'Glacial Indifference';-inkscape-font-specification:'Glacial Indifference';white-space:pre;fill:url(#linearGradient1025);fill-opacity:1;stroke:none"
       id="path939" />
    <path
       d="m 55.171021,78.144672 c 0,0.5461 -0.1905,1.0287 -0.5715,1.4224 -0.381,0.4064 -0.8509,0.6096 -1.397,0.6096 -0.5588,0 -1.0287,-0.2032 -1.4097,-0.6096 -0.381,-0.3937 -0.5588,-0.8763 -0.5588,-1.4224 0,-0.5334 0.1778,-1.016 0.5588,-1.4224 0.381,-0.4064 0.8509,-0.6096 1.4097,-0.6096 0.5461,0 1.016,0.2032 1.397,0.6096 0.381,0.4064 0.5715,0.889 0.5715,1.4224 z m 0.889,2.794 v -5.588 h -0.889 v 0.9652 c -0.0508,-0.0762 -0.1143,-0.1397 -0.1651,-0.2032 -0.5334,-0.5842 -1.1811,-0.889 -1.9431,-0.889 -0.7747,0 -1.4224,0.3048 -1.9558,0.889 -0.508,0.5842 -0.762,1.2573 -0.762,2.032 0,0.7874 0.254,1.4605 0.762,2.032 0.5334,0.5969 1.1811,0.889 1.9558,0.889 0.762,0 1.4097,-0.2921 1.9431,-0.889 0.0508,-0.0508 0.1143,-0.1143 0.1651,-0.1905 v 0.9525 z"
       style="font-style:normal;font-variant:normal;font-weight:normal;font-stretch:normal;font-size:12.7px;line-height:1.25;font-family:'Glacial Indifference';-inkscape-font-specification:'Glacial Indifference';white-space:pre;fill:url(#linearGradient1027);fill-opacity:1;stroke:none"
       id="path941" />
    <path
       d="m 61.825818,80.938672 h 0.889 v -3.4925 c 0,-0.6477 -0.1778,-1.1684 -0.508,-1.5621 -0.1778,-0.2032 -0.381,-0.3556 -0.6223,-0.4699 -0.254,-0.1143 -0.5715,-0.1778 -0.9652,-0.1778 -0.4064,0 -0.7493,0.1143 -1.0541,0.3175 -0.2921,0.1905 -0.5334,0.4445 -0.7112,0.762 v -0.9652 h -0.889 v 5.588 h 0.889 v -2.3368 c 0,-0.7112 0.127,-1.27 0.3937,-1.6891 0.1524,-0.2286 0.3429,-0.4191 0.5842,-0.5715 0.2286,-0.1397 0.5461,-0.2159 0.9271,-0.2159 0.381,0 0.6477,0.1397 0.8128,0.3937 0.1651,0.254 0.254,0.5715 0.254,0.9271 z"
       style="font-style:normal;font-variant:normal;font-weight:normal;font-stretch:normal;font-size:12.7px;line-height:1.25;font-family:'Glacial Indifference';-inkscape-font-specification:'Glacial Indifference';white-space:pre;fill:url(#linearGradient1029);fill-opacity:1;stroke:none"
       id="path943" />
    <path
       d="m 67.159785,73.102772 h 2.0955 v 7.8105 h 0.889 v -7.8105 h 2.0955 v -0.8255 h -2.0955 -0.889 -2.0955 z"
       style="font-style:normal;font-variant:normal;font-weight:normal;font-stretch:normal;font-size:12.7px;line-height:1.25;font-family:'Glacial Indifference';-inkscape-font-specification:'Glacial Indifference';white-space:pre;fill:url(#linearGradient1031);fill-opacity:1;stroke:none"
       id="path945" />
    <path
       d="m 75.783057,79.986172 v 0.9525 h 0.889 v -5.588 h -0.889 v 2.3368 c 0,0.7874 -0.1524,1.3843 -0.4445,1.8288 -0.2794,0.4318 -0.7747,0.6477 -1.4605,0.6477 -0.381,0 -0.6604,-0.127 -0.8255,-0.381 -0.1651,-0.254 -0.2413,-0.5715 -0.2413,-0.9398 v -3.4925 h -0.889 v 3.4925 c 0,0.6477 0.1651,1.1811 0.5207,1.6002 0.3556,0.4064 0.8382,0.6096 1.4732,0.6096 0.8255,0 1.4478,-0.3556 1.8669,-1.0668 z"
       style="font-style:normal;font-variant:normal;font-weight:normal;font-stretch:normal;font-size:12.7px;line-height:1.25;font-family:'Glacial Indifference';-inkscape-font-specification:'Glacial Indifference';white-space:pre;fill:url(#linearGradient1033);fill-opacity:1;stroke:none"
       id="path947" />
    <path
       d="m 81.25674,76.506372 v -1.1557 c -0.1778,-0.0762 -0.3683,-0.1143 -0.5588,-0.1143 -0.635,0 -1.0922,0.3556 -1.3843,1.0414 l -0.0381,0.2286 v -1.1557 h -0.889 v 5.588 h 0.889 v -2.794 c 0,-0.4572 0.1016,-0.8636 0.3175,-1.2319 0.1016,-0.1905 0.2413,-0.3556 0.4064,-0.4826 0.1651,-0.127 0.3683,-0.2032 0.5969,-0.2032 0.2286,0 0.4445,0.1016 0.6604,0.2794 z"
       style="font-style:normal;font-variant:normal;font-weight:normal;font-stretch:normal;font-size:12.7px;line-height:1.25;font-family:'Glacial Indifference';-inkscape-font-specification:'Glacial Indifference';white-space:pre;fill:url(#linearGradient1035);fill-opacity:1;stroke:none"
       id="path949" />
    <path
       d="m 83.237928,73.420272 c -0.1143,-0.1016 -0.254,-0.1651 -0.4064,-0.1651 -0.1524,0 -0.2921,0.0635 -0.3937,0.1651 -0.1143,0.1143 -0.1651,0.254 -0.1651,0.4064 0,0.1524 0.0508,0.2921 0.1651,0.3937 0.1016,0.1143 0.2413,0.1651 0.3937,0.1651 0.1524,0 0.2921,-0.0508 0.4064,-0.1651 0.1016,-0.1016 0.1651,-0.2413 0.1651,-0.3937 0,-0.1524 -0.0635,-0.2921 -0.1651,-0.4064 z m 0.0508,7.5184 v -5.588 h -0.889 v 5.588 z"
       style="font-style:normal;font-variant:normal;font-weight:normal;font-stretch:normal;font-size:12.7px;line-height:1.25;font-family:'Glacial Indifference';-inkscape-font-specification:'Glacial Indifference';white-space:pre;fill:url(#linearGradient1037);fill-opacity:1;stroke:none"
       id="path951" />
    <path
       d="m 86.044604,80.151272 c -0.2159,-0.1524 -0.381,-0.4064 -0.4699,-0.7747 h -0.9398 c 0.1905,1.1557 0.9271,1.7272 2.2225,1.7272 0.3048,0 0.5842,-0.0254 0.8509,-0.1016 0.2667,-0.0762 0.4953,-0.1778 0.7112,-0.3175 0.4318,-0.2921 0.6477,-0.7366 0.6477,-1.3335 0,-0.6096 -0.2794,-1.0414 -0.8636,-1.3208 -0.2413,-0.1143 -0.508,-0.2032 -0.8001,-0.2667 -0.2794,-0.0635 -0.5461,-0.1397 -0.7874,-0.2159 -0.254,-0.0762 -0.4572,-0.1778 -0.6223,-0.2921 -0.1651,-0.1143 -0.254,-0.2921 -0.254,-0.5461 0,-0.254 0.1016,-0.4445 0.3048,-0.5588 0.2032,-0.127 0.4445,-0.1905 0.7112,-0.1905 0.2794,0 0.5207,0.0635 0.7112,0.1651 0.1905,0.1016 0.3429,0.3048 0.4318,0.6096 h 0.9525 c -0.1143,-0.5588 -0.3556,-0.9525 -0.7112,-1.1684 -0.3683,-0.2286 -0.8128,-0.3429 -1.3589,-0.3429 -0.5334,0 -1.0033,0.1524 -1.397,0.4318 -0.381,0.2921 -0.5842,0.7112 -0.5842,1.27 0,0.2667 0.0762,0.508 0.2159,0.7112 0.1524,0.2159 0.3683,0.381 0.6477,0.508 0.254,0.1143 0.5207,0.2032 0.8001,0.2794 0.2794,0.0635 0.5461,0.1397 0.8001,0.2159 0.5715,0.1905 0.8636,0.4699 0.8636,0.8255 0,0.6096 -0.4064,0.9017 -1.2192,0.9017 -0.3429,0 -0.635,-0.0635 -0.8636,-0.2159 z"
       style="font-style:normal;font-variant:normal;font-weight:normal;font-stretch:normal;font-size:12.7px;line-height:1.25;font-family:'Glacial Indifference';-inkscape-font-specification:'Glacial Indifference';white-space:pre;fill:url(#linearGradient1039);fill-opacity:1;stroke:none"
       id="path953" />
    <text
       xml:space="preserve"
       id="text16"
       style="fill:black;fill-opacity:1;line-height:1.25;stroke:none;font-family:sans-serif;font-style:normal;font-weight:normal;font-size:10.58333333px;white-space:pre;shape-inside:url(#rect18);" />
    <text
       xml:space="preserve"
       id="text22"
       style="fill:black;fill-opacity:1;line-height:1.25;stroke:none;font-family:sans-serif;font-style:normal;font-weight:normal;font-size:10.58333333px;white-space:pre;shape-inside:url(#rect24);" />
    <text
       xml:space="preserve"
       id="text28"
       style="fill:black;fill-opacity:1;line-height:1.25;stroke:none;font-family:sans-serif;font-style:normal;font-weight:normal;font-size:10.58333333px;white-space:pre;shape-inside:url(#rect30);" />
    <text
       xml:space="preserve"
       id="text34"
       style="fill:black;fill-opacity:1;line-height:1.25;stroke:none;font-family:sans-serif;font-style:normal;font-weight:normal;font-size:10.58333333px;white-space:pre;shape-inside:url(#rect36);" />
    <text
       xml:space="preserve"
       id="text40"
       style="fill:black;fill-opacity:1;line-height:1.25;stroke:none;font-family:sans-serif;font-style:normal;font-weight:normal;font-size:10.58333333px;white-space:pre;shape-inside:url(#rect42);" />
    <text
       xml:space="preserve"
       id="text956"
       style="font-style:normal;font-weight:normal;font-size:10.5833px;line-height:1.25;font-family:sans-serif;white-space:pre;shape-inside:url(#rect958);fill:#000000;fill-opacity:1;stroke:none;" />
    <text
       xml:space="preserve"
       id="text962"
       style="fill:black;fill-opacity:1;line-height:1.25;stroke:none;font-family:sans-serif;font-style:normal;font-weight:normal;font-size:10.58333333px;white-space:pre;shape-inside:url(#rect964);" />
    <text
       xml:space="preserve"
       id="text968"
       style="fill:black;fill-opacity:1;line-height:1.25;stroke:none;font-family:sans-serif;font-style:normal;font-weight:normal;font-size:10.58333333px;white-space:pre;shape-inside:url(#rect970);" />
    <text
       xml:space="preserve"
       id="text974"
       style="fill:black;fill-opacity:1;line-height:1.25;stroke:none;font-family:sans-serif;font-style:normal;font-weight:normal;font-size:10.58333333px;white-space:pre;shape-inside:url(#rect976);" />
    <text
       xml:space="preserve"
       id="text980"
       style="fill:black;fill-opacity:1;line-height:1.25;stroke:none;font-family:sans-serif;font-style:normal;font-weight:normal;font-size:10.58333333px;white-space:pre;shape-inside:url(#rect982);" />
    <text
       xml:space="preserve"
       id="text986"
       style="fill:black;fill-opacity:1;line-height:1.25;stroke:none;font-family:sans-serif;font-style:normal;font-weight:normal;font-size:10.58333333px;white-space:pre;shape-inside:url(#rect988);" />
    <g
       id="text992"
       style="font-style:normal;font-weight:normal;font-size:10.5833px;line-height:1.25;font-family:sans-serif;white-space:pre;shape-inside:url(#rect994);mix-blend-mode:normal;fill:#000000;fill-opacity:1;stroke:none" />
    <text
       xml:space="preserve"
       id="text999"
       style="font-style:normal;font-weight:normal;font-size:10.5833px;line-height:1.25;font-family:sans-serif;white-space:pre;shape-inside:url(#rect1001);fill:#000000;fill-opacity:1;stroke:none;"
       sodipodi:insensitive="true" />
  </g>
</svg>
