<svg xmlns:dc="http://purl.org/dc/elements/1.1/" xmlns:cc="http://creativecommons.org/ns#"
  xmlns:rdf="http://www.w3.org/1999/02/22-rdf-syntax-ns#" xmlns:svg="http://www.w3.org/2000/svg"
  xmlns="http://www.w3.org/2000/svg" xmlns:sodipodi="http://sodipodi.sourceforge.net/DTD/sodipodi-0.dtd"
  xmlns:inkscape="http://www.inkscape.org/namespaces/inkscape" version="1.1" id="Layer_1" x="0px" y="0px"
  viewBox="0 0 620.3 720" style="enable-background:new 0 0 620.3 720;" xml:space="preserve"
  sodipodi:docname="Yoga Pose 2.svg" inkscape:version="1.0.2 (e86c870879, 2021-01-15)">
  <metadata id="metadata11">
    <rdf:RDF>
      <cc:Work rdf:about="">
        <dc:format>ile="enable-background:new 0 0 620.3 720;"mage/svg+xml</dc:format>
        <dc:type rdf:resource="http://purl.org/dc/dcmitype/StillImage" />
        <dc:title></dc:title>
      </cc:Work>
    </rdf:RDF>
  </metadata>
  <defs id="defs9" />
  <sodipodi:namedview pagecolor="#ffffff" bordercolor="#666666" borderopacity="1" objecttolerance="10"
    gridtolerance="10" guidetolerance="10" inkscape:pageopacity="0" inkscape:pageshadow="2" inkscape:window-width="1172"
    inkscape:window-height="976" id="namedview7" showgrid="false" inkscape:zoom="1.1972222" inkscape:cx="263.51934"
    inkscape:cy="347.21454" inkscape:window-x="740" inkscape:window-y="59" inkscape:window-maximized="0"
    inkscape:current-layer="Layer_1" />
  <g id="g4">
    <path
      d="M47.3,144.1c0.3-2.7,7.9-13.4,8.7-14.8c7-11,15.9-28.3,20.6-43.8C82.7,65,86.7,65.9,84.2,62c-0.9-1.3,0.5-2.7,0.6-4.1   c0.7-6.8,5.8-6.2,1.9-8.8c2.3-0.4,2.1-2.8,3.4-4.1c0.8-0.8,1-2,0.5-3.3c-0.4-1.3,1.1-2.3,1.3-3.6c0.5-3.3,3.9-0.6,4.6-3.6   c0.9-3.7,3.8-3.3,4.7-4c4.5-3.3,6.3,1.6,9.1-1.6c3.8-4.3,5.3-5.5,4-11.2c-0.5-2.2-1.5-4.5-0.5-6.7c3.5-7.2,6.5-14.6,10.3-9.2   c0.7,1,2.3,1.9,2.4,2.7c0.7,3.8,6.1,6.2,3.2,11c-0.2,0.4-0.3,0.8,0.1,1.3c3.4,4.4,2.7,9.4,1.9,14.2c-3.5,19.9-2.5,15.9-0.1,22.8   c1,2.9,2.6,5.5,3.2,8.5c0.4,2,0.3,4,0.8,6.1c5.4,20.4,47.4,58.2,53,64.1c7.6,8.1,14.2,17,19.5,26.8c3,5.6,22.1,20.2,22.6,20.7   c27.6,24.7,18.2,21.2,38.3,32.3c5.7,3.1,19.7,9.3,23.5,12.7c3,2.6,3.8-2.4,13.2-6.6c2.2-1,1.1-2.3,2.5-2.3c2.5,0,3.2-0.7,8.1-21.1   c1-4.1,3.2-7.6,4.8-11.4c1.1-2.5,1-6,7.4-9.7c4.8-2.7,10-9,23-9.4c10.8-0.4,13.2,2.3,14.9-0.1c0.4-0.5,1-0.1,1.4,0.1   c1.6,1,3.4,1.4,5.2,1.5c6.9,0.5,8.9,4.1,13.2,5c6.3,1.3,12.8,10.1,11.1,16.3c-0.5,1.7,0.6,3.5,0.8,5.2c0.5,4.2,1.6,8.3,0.6,12.5   c-0.7,2.8-2.8,3.3,0.8,7.7c2.2,2.7,3.9,5.6,6.2,8.2c2.2,2.4,1.4,4.8-1.6,6.1c-3.7,1.6-5,0.3-3.5,5.8c1.6,6-2.3,3.7-0.3,6.4   c2.6,3.5-3.3,4.1-1.4,10.4c1.2,4-2.9,8.1-6.8,7.9c-5.9-0.3-9.8-1.7-17.7,0.4c-4.1,1.1-1.6,1.6-12,11.5c-3,2.9-2.5,6.2-7.2,13.8   c-1.6,2.7-2,5.7-2.3,8.8c-0.4,4.1,11.7,3.2,20.7,6.4c5.4,1.9,16.1,3.4,20.4,4.9c12.5,4.4,21.6-2.5,52-4.1   c12.3-0.6,15.3-9.4,39.3-13.9c13.2-2.5,26.5-4.7,39.1-9.5c35.8-13.5,33.2-10.2,38.1-16.4c2.4-3,5-5.8,7.4-8.8   c2.4-3.1,12.7-3.1,20.5-10.1c1.6-1.4,2.4,1.6,1.9,3.4c-0.3,1.2,0.2,1.7,1.3,1.2c4.4-2,9.4-2.1,13.9-3.7c1.9-0.7,6.2-1.2,7,1.2   c1.3,4.4-7.1,4.4-10.3,6.7c4.3,0.3,9.6-2.3,13-2.1c3.9,0.1,3.7,4.1,1.1,5.3c-4.6,2.1-10.6,2.2-10.1,3.7c0.5,1.5,8.1-3.9,9.4-0.4   c0.6,1.7-0.3,3.4-2.2,4c-1.8,0.6-3.5,1.5-5.4,1.9c-3.9,0.9,2.6,2.7-1.9,5.8c-7.3,5.2-6.9,2.8-21,11.8c-9.9,6.3-22.2,4.3-29.4,6.5   c-3.7,1.1-7,3.2-10.4,5c-15.4,8.2-36.8,17.3-46.6,20.8c-24.9,9-28.4,8.1-33.3,11.1c-4.1,2.6-14.3,1.3-20.8,4   c-2.7,1.1-35.6,8.9-38.4,9.5c-22.9,5.5-29.7,2.2-47.3,4c-4,0.4-3.7,0-4.5,3.7c-1.4,6.2-3,15.9-11.8,22.6   c-15.4,11.7-19.9,23.5-26.8,22.7c-8.5-1-13.9,19.4-39.6,27.2c-27,8.1-9.4,1.5-21.9,7.6c-10.3,4.9-18.4,8.9-34.2,9.4   c-19.1,0.5-19.7,0-22,1.4c-1.7,1-3.9,0.6-5.7,1.5c-1.9,0.9-0.5-4.7-2.5-4.7c-0.7,0-0.6,0.5-0.6,1c-0.1,2.7-0.7,5.2-2.1,7.5   c-0.2,0.3-0.4,0.7-0.3,0.9c1.3,2.3,0.2,4.7,0.2,7c0,22.4-0.1,33.6-7.9,55.7c-0.6,1.8-1.5,3.6-0.4,5.5c0.1,0.2,0.1,0.5,0,0.8   c-3.6,12.2-0.2,21.7-2.7,38.4c-0.6,3.9-2.5,5.7-0.9,6.9c5.3,4-0.3,6.4,2.6,16c0.5,1.6,0.5,3.2,0.3,4.7c-0.8,7.6,0.3,15.1,0.9,22.6   c7.5,96.4,22.2,88.2,35.8,96.9c1.9,1.3,4.3,1.3,6.5,0.8c3.9-0.9,4.8,0.5,11.3,0c3.8-0.3,14.9,8,15.3,8.3c3.8,2.3,7.1,6.8,6.5,11.6   c-0.5,3.5-10.5,4.9-14.8,3.2c-4.6-1.8-7.6,1.4-17.8-1.6c-13.8-4.2-40.2-0.5-48.4-1c-9-0.6-11.5-10.5-10.1-19.4   c1.3-7.9-8.7-44.8-18.3-62.5c-9.8-17.8-7.5-22.1-11.1-23.3c-4.8-1.7-12.1-6.2-10.1-13.2c1.4-5,1.3-10.2,1.6-15.3   c1-16.8,3.3-23.3,1.7-28.9c-0.1-0.4-0.2-0.9,0-1.2c1.2-2.6,0.4-5.3,0.7-8c0.4-3.9-1.5-7-1.1-12.2c0.7-10.2-8-42.3-10.7-61.5   c-1.6-11.8-1.4-23.8-1.6-35.7c-0.9-64.7,0-35.5-33.7-83.2c-2-2.9-34.5-43.5-34.9-43.9C24.4,279.3,15.4,273,8,257.8   c-18.9-38.4,1-28.7,5.9-79.8c1-10.3,19.8-13.9,30.5-13.7c1.4,0,2.8,0.1,2.7-1.1c0-0.7-0.7-0.6-1-0.5c-1,0.3-1.6-0.6-2.2-1   c-0.9-0.6,0.4-1.3,0.4-1.9c0.1-3.2,2.5-5.4,3.3-8.2C50.6,142,48.5,145.1,47.3,144.1z M186.4,177.7c-14.7-15.5-36.6-45.5-45.3-60.4   c-3.7-6.3-8.6-11.6-12.8-17.4c-0.6-0.8-1.2-0.9-2-0.3c-8.5,6.5-18.8-0.8-22.7,8.1c-4,9.1-5.2,28.1-9.1,44.9   c-6.5,27.7-8.2,29.4-7.2,34.3c1.5,7.3,2.1,13.7-6.5,26.1c-11.9,17.3-10.8,17.9-13.9,19.5c-2.7,1.4,0.6,3.7-1.2,6.7   c-0.1,0.2-0.2,0.6-0.1,0.7c1.4,1.3,1.4,3.1,1.8,4.7c0.4,1.6,2.1-0.2,2.9,3c1.1,4.3,3.3,1.7,4.6,4.6c1.4,3.1,8.2,7.2,18,16.3   c8.3,7.8,16.4,15.8,24.5,23.8c4.6,4.6,10,8.2,14.3,13.2c1.2,1.4,4.3-0.6,3.4,1.8c-0.3,0.6,0,1,0.7,1.1c3.1,0.1,5.2,2.7,8.1,3.4   c0.9,0.2,2.6,3.3,7.1,2.1c4.3-1.1,4.6,0.8,6.7,1.2c0.5,0.1,26.3,3.7,31.4,7.3c2.6,1.8,5.9,2.6,8.7,4.2c2.4,1.4,4.6,3.2,7.6,3.7   c1.4,0.2,2.8,1.2,3.4,2.6c1.8,3.7,6-0.5,8.8,3.7c1.1,1.6,4-0.1,6.2-0.8c2.2-0.7,4.3-1.9,5.6-3.4c8.7-10,11.6-7.2,13.1-14.4   c1-4.9,5.3-9,7.9-9.4c2-0.3,3.9-0.6,4.6-2.7c0.6-1.9,2.3-3.1,2.6-5.1c0.1-0.9-2.5-3.2,0.6-5.3c0.5-0.3,0.3-1,0.3-1.5   c0.2-4.3,1-8.4,3.5-12c0.9-1.3-1.1-4.5,0.5-7.4c5.5-10.1-17.5-27.9-24.6-34.8c-21.2-20.3-47.3-55.7-47.5-56.1c-0.3-1-1-1.5-2-1.7   C185.4,181.8,188.1,179.5,186.4,177.7z M312.5,240.5c0.7,1.3,1.3,1.2,2.4,0.3c1.2-1.1,0.4-2.2,0.5-3.2c1.1-8.8,3.5-9.2,1.9-10.7   c-0.6-0.6-1.1,0.4-1.6,0.5c-1.1,0.4-2.6,0.2-3.2,1.6C310.8,233.2,310.4,236.5,312.5,240.5z"
      id="path2" />
  </g>
</svg>
